<?xml version="1.0" encoding="UTF-8" standalone="no"?><!DOCTYPE svg PUBLIC "-//W3C//DTD SVG 1.1//EN" "http://www.w3.org/Graphics/SVG/1.1/DTD/svg11.dtd"><svg width="100%" height="100%" viewBox="0 0 158 89" version="1.1" xmlns="http://www.w3.org/2000/svg" xmlns:xlink="http://www.w3.org/1999/xlink" xml:space="preserve" xmlns:serif="http://www.serif.com/" style="fill-rule:evenodd;clip-rule:evenodd;stroke-linecap:round;stroke-linejoin:round;stroke-miterlimit:10;"><path d="M55.744,8.744l-8.574,17.481l-8.576,17.478l-8.308,-17.602l-8.312,-17.604l16.946,-7.863l16.824,8.11Zm20.926,26.583l-19.009,4.211l-19.008,4.212l8.577,-17.483l8.578,-17.482l16.712,8.332l4.15,18.21Zm-7.702,32.907l-30.296,-24.469l38.01,-8.394l3.918,18.262l-11.632,14.601Zm-30.566,14.534l0.207,-38.925l15.149,12.234l15.15,12.234l-11.828,14.445l-18.678,0.012Zm-16.599,-74.181l8.381,17.577l8.38,17.578l-37.93,-8.853l4.36,-18.162l16.809,-8.14Zm79.823,71.665l8.574,-17.481l8.575,-17.479l8.309,17.604l8.311,17.604l-16.945,7.863l-16.824,-8.111Zm-20.928,-26.584l19.011,-4.212l19.008,-4.211l-8.577,17.483l-8.579,17.484l-16.713,-8.333l-4.15,-18.211Zm7.704,-32.906l30.295,24.468l-38.01,8.394l-3.919,-18.261l11.634,-14.601Zm30.565,-14.533l-0.103,19.461l-0.104,19.464l-15.148,-12.234l-15.15,-12.234l11.827,-14.445l18.678,-0.012Zm16.599,74.181l-8.38,-17.579l-8.381,-17.577l37.929,8.853l-4.359,18.161l-16.809,8.142Z" style="fill:none;fill-rule:nonzero;stroke:white;stroke-width:1.27px;"/></svg>