<?xml version="1.0" encoding="UTF-8" standalone="no"?><!DOCTYPE svg PUBLIC "-//W3C//DTD SVG 1.1//EN" "http://www.w3.org/Graphics/SVG/1.1/DTD/svg11.dtd"><svg width="100%" height="100%" viewBox="0 0 123 61" version="1.1" xmlns="http://www.w3.org/2000/svg" xmlns:xlink="http://www.w3.org/1999/xlink" xml:space="preserve" xmlns:serif="http://www.serif.com/" style="fill-rule:evenodd;clip-rule:evenodd;stroke-linecap:round;stroke-linejoin:round;stroke-miterlimit:10;"><path d="M102.722,37.874l-11.974,8.349l-12.047,-8.653l4.53,-13.695l14.846,0.187l4.645,13.812Zm-24.141,-27.912l4.644,13.812l14.846,0.189l4.531,-13.696l-12.046,-8.654l-11.975,8.349Zm19.571,14.064l4.645,13.812l14.846,0.188l4.531,-13.697l-12.046,-8.652l-11.976,8.349Zm-31.49,21.969l4.644,13.814l14.847,0.187l4.53,-13.696l-12.046,-8.652l-11.975,8.347Zm24.123,0.3l4.646,13.814l14.847,0.187l4.528,-13.696l-12.045,-8.652l-11.976,8.347Zm-12.175,-8.754l-14.847,-0.189l-4.644,-13.812l11.974,-8.349l12.047,8.654l-4.53,13.696Zm-58.524,-14.485l4.644,13.812l14.847,0.187l4.53,-13.696l-12.047,-8.652l-11.974,8.349Zm36.06,-8.123l-11.975,8.349l-12.046,-8.652l4.53,-13.696l14.845,0.187l4.646,13.812Zm-24.125,-0.3l-11.974,8.349l-12.047,-8.652l4.53,-13.696l14.847,0.187l4.644,13.812Zm12.206,36.333l-11.975,8.349l-12.046,-8.653l4.53,-13.697l14.847,0.188l4.644,13.813Zm-19.572,-14.064l-11.975,8.349l-12.046,-8.652l4.531,-13.696l14.846,0.187l4.644,13.812Zm15.013,0.183l12.045,8.652l11.976,-8.349l-4.644,-13.812l-14.847,-0.187l-4.53,13.696Z" style="fill:none;fill-rule:nonzero;stroke:white;stroke-width:1.27px;"/></svg>