<?xml version="1.0" encoding="UTF-8" standalone="no"?><!DOCTYPE svg PUBLIC "-//W3C//DTD SVG 1.1//EN" "http://www.w3.org/Graphics/SVG/1.1/DTD/svg11.dtd"><svg width="100%" height="100%" viewBox="0 0 183 83" version="1.1" xmlns="http://www.w3.org/2000/svg" xmlns:xlink="http://www.w3.org/1999/xlink" xml:space="preserve" xmlns:serif="http://www.serif.com/" style="fill-rule:evenodd;clip-rule:evenodd;stroke-linecap:round;stroke-linejoin:round;stroke-miterlimit:10;"><path d="M165.001,27.736l-16.508,26.971l-16.2,-26.92l32.708,-0.051Zm-16.443,26.971l16.506,-26.971l16.201,26.92l-32.707,0.051Zm-16.265,-27.049l16.509,-26.972l16.199,26.921l-32.708,0.051Zm-0.13,0.13l-16.506,26.97l-16.202,-26.92l32.708,-0.05Zm16.264,27.05l-16.509,26.97l-16.198,-26.919l32.707,-0.051Zm-32.707,-0.08l16.507,-26.97l16.2,26.919l-32.707,0.051Zm-49.232,-26.868l-16.509,26.972l-16.198,-26.921l32.707,-0.051Zm32.838,-0.051l-16.509,26.97l-16.2,-26.919l32.709,-0.051Zm-49.411,27.153l-16.508,26.97l-16.2,-26.919l32.708,-0.051Zm0.13,-0.13l16.508,-26.972l16.2,26.921l-32.708,0.051Zm-16.395,-26.919l-16.507,26.97l-16.199,-26.921l32.706,-0.049Zm-16.443,26.97l16.509,-26.97l16.199,26.919l-32.708,0.051Zm65.676,-0.104l16.508,-26.97l16.2,26.921l-32.708,0.049Zm33.017,-54.072l-16.509,26.972l-16.199,-26.921l32.708,-0.051Zm-16.443,26.972l16.507,-26.972l16.2,26.921l-32.707,0.051Zm-98.823,54.306l16.507,-26.972l16.199,26.921l-32.706,0.051Zm82.119,-27.075l-16.508,26.971l-16.201,-26.92l32.709,-0.051Zm-16.443,26.971l16.506,-26.97l16.201,26.919l-32.707,0.051Zm-32.529,-54.099l16.509,-26.971l16.198,26.92l-32.707,0.051Zm147.793,-27.178l-16.509,26.971l-16.198,-26.92l32.707,-0.051Z" style="fill:none;fill-rule:nonzero;stroke:white;stroke-width:1.27px;"/></svg>