<?xml version="1.0" encoding="UTF-8" standalone="no"?><!DOCTYPE svg PUBLIC "-//W3C//DTD SVG 1.1//EN" "http://www.w3.org/Graphics/SVG/1.1/DTD/svg11.dtd"><svg width="100%" height="100%" viewBox="0 0 149 84" version="1.1" xmlns="http://www.w3.org/2000/svg" xmlns:xlink="http://www.w3.org/1999/xlink" xml:space="preserve" xmlns:serif="http://www.serif.com/" style="fill-rule:evenodd;clip-rule:evenodd;stroke-linecap:round;stroke-linejoin:round;stroke-miterlimit:10;"><path d="M74.23,21.184l-36.618,20.55l0,-41.1l36.618,20.55Zm73.954,41.464l-36.616,20.55l-0,-41.1l36.616,20.55Zm-36.976,-20.733l-36.618,20.55l-0,-41.098l36.618,20.548Zm-36.978,20.733l-36.618,20.55l-0,-41.1l36.618,20.55Zm0.36,-41.464l36.618,20.55l-0,-41.1l-36.618,20.55Zm-0,41.464l36.618,20.55l-0,-41.1l-36.618,20.55Zm-36.978,-20.733l36.618,-20.548l-0,41.098l-36.618,-20.55Zm-36.978,20.733l36.618,-20.55l-0,41.1l-36.618,-20.55Z" style="fill:none;fill-rule:nonzero;stroke:white;stroke-width:1.27px;"/></svg>