<?xml version="1.0" encoding="UTF-8" standalone="no"?><!DOCTYPE svg PUBLIC "-//W3C//DTD SVG 1.1//EN" "http://www.w3.org/Graphics/SVG/1.1/DTD/svg11.dtd"><svg width="100%" height="100%" viewBox="0 0 512 512" version="1.1" xmlns="http://www.w3.org/2000/svg" xmlns:xlink="http://www.w3.org/1999/xlink" xml:space="preserve" xmlns:serif="http://www.serif.com/" style="fill-rule:evenodd;clip-rule:evenodd;stroke-linejoin:round;stroke-miterlimit:2;"><g><path d="M450.169,181.354l-70.484,-97.064l-114.056,-36.965l0,92.652l96.384,70.031l88.156,-28.654Zm-203.619,-41.377l-0,-92.652l-114.056,36.965l-70.484,97.064l88.156,28.618l96.384,-69.995Zm-47.96,193.614l114.998,0l35.51,-109.37l-93.009,-67.598l-93.009,67.599l35.51,109.369Zm-2.122,19.079l-54.434,75.04l114.055,36.965l114.056,-36.965l-54.434,-75.04l-119.243,0Zm171.375,-124.561l-36.81,113.28l54.483,74.993l70.484,-97.016l0,-119.863l-88.157,28.606Zm-223.687,0l-88.156,-28.618l0,119.934l70.484,97.016l54.482,-74.992l-36.81,-113.34Z" style="fill:#fff;fill-rule:nonzero;"/></g></svg>