<?xml version="1.0" encoding="UTF-8" standalone="no"?><!DOCTYPE svg PUBLIC "-//W3C//DTD SVG 1.1//EN" "http://www.w3.org/Graphics/SVG/1.1/DTD/svg11.dtd"><svg width="100%" height="100%" viewBox="0 0 512 512" version="1.1" xmlns="http://www.w3.org/2000/svg" xmlns:xlink="http://www.w3.org/1999/xlink" xml:space="preserve" xmlns:serif="http://www.serif.com/" style="fill-rule:evenodd;clip-rule:evenodd;stroke-linejoin:round;stroke-miterlimit:2;"><g><path d="M248,20.3l-175.67,112.3l175.67,-3.8l0,-108.5Zm16,0l0,108.5l175.7,3.8l-175.7,-112.3Zm-22.1,124.6l-186.51,4.1l71.21,192.9l115.3,-197Zm28.2,0l115.3,197l71.2,-192.9l-186.5,-4.1Zm-14.1,7.5l-117.1,200.2l234.2,0l-117.1,-200.2Zm-204,33.6l0,173.2l61.9,-5.7l-61.9,-167.5Zm408,-0l-61.9,167.5l61.9,5.7l0,-173.2Zm-316.8,182.6l112.8,123.1l112.8,-123.1l-225.6,0Zm-21.4,0.3l-53.84,4.9l140.84,90.1l-87,-95Zm268.4,0l-87,95l140.8,-90.1l-53.8,-4.9Z" style="fill:#fff;fill-rule:nonzero;"/></g></svg>