<?xml version="1.0" encoding="UTF-8" standalone="no"?><!DOCTYPE svg PUBLIC "-//W3C//DTD SVG 1.1//EN" "http://www.w3.org/Graphics/SVG/1.1/DTD/svg11.dtd"><svg width="100%" height="100%" viewBox="0 0 512 512" version="1.1" xmlns="http://www.w3.org/2000/svg" xmlns:xlink="http://www.w3.org/1999/xlink" xml:space="preserve" xmlns:serif="http://www.serif.com/" style="fill-rule:evenodd;clip-rule:evenodd;stroke-linejoin:round;stroke-miterlimit:2;"><g><path d="M255.76,44.764c-6.176,0 -12.353,1.384 -17.137,4.152l-152.753,88.36c-9.57,5.536 -9.57,14.29 0,19.826l152.753,88.36c9.57,5.536 24.703,5.536 34.272,0l152.753,-88.36c9.57,-5.535 9.57,-14.29 -0,-19.825l-152.753,-88.36c-4.785,-2.77 -10.96,-4.153 -17.135,-4.153Zm-180.09,129.076c-5.753,-0.155 -9.664,4.336 -9.664,12.28l0,157.696c0,11.052 7.57,24.163 17.14,29.69l146.93,84.848c9.57,5.526 17.14,1.156 17.14,-9.895l0,-157.699c0,-11.052 -7.57,-24.16 -17.14,-29.688l-146.93,-84.847c-2.69,-1.555 -5.225,-2.327 -7.476,-2.387l-0,0.002Zm360.773,0.002c-2.25,0.06 -4.783,0.83 -7.474,2.385l-146.935,84.847c-9.57,5.527 -17.14,18.638 -17.14,29.69l0,157.7c0,11.05 7.57,15.418 17.14,9.89l146.936,-84.844c9.57,-5.527 17.137,-18.636 17.137,-29.688l0,-157.7c0,-7.942 -3.91,-12.432 -9.664,-12.278l0,-0.002Z" style="fill:#fff;fill-rule:nonzero;"/></g></svg>